 http://www.imdb.com/title/tt0059160/
 
http://image.bayimg.com/gachbaadg.jpg


A raw Welsh novelist in Venice is humiliated by a money-loving Frenchwoman who erotically ensnares him.

Great Adaptation by Joseph Losey with Jeanne Moreau in her splendor, Stanley Baker and Virna Lisi 

Nice encoding in B&W



Cast 
  Jeanne Moreau......Eve Olivier  
  Stanley Baker......Tyvian Jones  
  Virna Lisi.........francesca Ferrara  
  James Villiers.....Alan McCormick - a screenwriter  
  Riccardo Garrone...Michele - a player  
  Lisa Gastoni.......The red-headed Russian  

Crew 
  Director: Joseph Losey
  Writers: James Hadley Chase (novel) & Hugo Butler

Screens (Actual Screenshots)
 
http://img35.imageshack.us/img35/2906/vlcsnap2011010317h27m58.png 
http://img145.imageshack.us/img145/2456/vlcsnap2011010317h39m25.png 
http://img560.imageshack.us/img560/4972/vlcsnap2011010317h35m45.png 
http://img190.imageshack.us/img190/5400/vlcsnap2011010317h22m25.png 
http://img718.imageshack.us/img718/2475/vlcsnap2011010317h19m53.png


General
Complete name                    : Eva (1962) DVDRip H264 K42\\Eva (1962) DVDRip H264 K42.mp4
Format                           : MPEG-4
Format profile                   : Base Media
Codec ID                         : isom
File size                        : 1.36 GiB
Duration                         : 1h 44mn
Overall bit rate                 : 1 860 Kbps

Video
ID                               : 1
Format                           : AVC
Format profile                   : Main@L3.0
Format settings, CABAC           : Yes
Format settings, ReFrames        : 4 frames
Duration                         : 1h 44mn
Bit rate mode                    : Variable
Bit rate                         : 1 700 Kbps
Maximum bit rate                 : 6 000 Kbps
Width                            : 704 pixels
Height                           : 576 pixels
Pixel aspect ratio               : 16:11 (PAL-DVD)
Display 
Original display aspect ratio    : 16:9
Frame rate                       : 25.000 fps
Standard                         : PAL
Color space                      : YUV
Chroma subsampling               : 4:2:0
Bit depth                        : 8 bits
Scan type                        : Progressive
Bits/(Pixel*Frame)               : 0.168
Stream size                      : 1.24 GiB (91%)

Audio
ID                               : 2
Format                           : AAC
Format profile                   : LC
Codec ID                         : 40
Duration                         : 1h 44mn
Bit rate mode                    : Constant
Bit rate                         : 160 Kbps
Channel(s)                       : 2 channels
Channel positions                : Front: L R
Sampling rate                    : 48.0 KHz
Stream size                      : 119 MiB (9%)
Language                         : English

SubTitle                         : French (.srt)
                                 : Spanish(.srt)
